<svg xmlns="http://www.w3.org/2000/svg" xmlns:xlink="http://www.w3.org/1999/xlink" enable-background="new 0 0 32 32" viewBox="0 0 32 32" id="message"><defs><linearGradient id="a"><stop offset="0" stop-color="#000092"></stop><stop offset="1" stop-color="#ff00f3"></stop></linearGradient><linearGradient id="b" x1="4.357" x2="24.969" y1="16.001" y2="16.001" gradientUnits="userSpaceOnUse" xlink:href="#a"></linearGradient></defs><path fill="url(#b)" d="M 16.144531 4.5 C 9.8035312 4.5 4.6445312 9.659 4.6445312 16 C 4.6445312 18.53 5.4515156 20.921594 6.9785156 22.933594 C 6.4245156 24.329594 5.5757656 25.604813 4.5097656 26.632812 C 4.3617656 26.774812 4.3165313 26.993594 4.3945312 27.183594 C 4.4715312 27.371594 4.6534688 27.492188 4.8554688 27.492188 L 4.8632812 27.492188 C 6.8072812 27.466188 8.721875 26.938891 10.421875 25.962891 C 12.168875 26.970891 14.141484 27.501953 16.146484 27.501953 C 22.487484 27.501953 27.646484 22.342953 27.646484 16.001953 C 27.645484 9.6599531 22.484531 4.5 16.144531 4.5 z M 16.144531 5.5 C 21.934531 5.5 26.644531 10.21 26.644531 16 C 26.644531 21.79 21.934531 26.5 16.144531 26.5 C 14.223531 26.5 12.334641 25.965125 10.681641 24.953125 C 10.601641 24.904125 10.512875 24.880859 10.421875 24.880859 C 10.331875 24.880859 10.240156 24.904125 10.160156 24.953125 C 8.9071562 25.718125 7.5150781 26.210344 6.0800781 26.402344 C 6.9040781 25.399344 7.564625 24.249531 8.015625 23.019531 C 8.075625 22.855531 8.0445469 22.670156 7.9355469 22.535156 C 6.4365469 20.656156 5.6445313 18.396 5.6445312 16 C 5.6445312 10.21 10.354531 5.5 16.144531 5.5 z M 9.5449219 12.419922 C 9.2689219 12.419922 9.0449219 12.643922 9.0449219 12.919922 C 9.0449219 13.195922 9.2689219 13.419922 9.5449219 13.419922 L 22.744141 13.419922 C 23.020141 13.419922 23.244141 13.195922 23.244141 12.919922 C 23.244141 12.643922 23.020141 12.419922 22.744141 12.419922 L 9.5449219 12.419922 z M 9.5449219 15.939453 C 9.2689219 15.939453 9.0449219 16.163453 9.0449219 16.439453 C 9.0449219 16.715453 9.2689219 16.939453 9.5449219 16.939453 L 22.744141 16.939453 C 23.020141 16.939453 23.244141 16.715453 23.244141 16.439453 C 23.244141 16.163453 23.020141 15.939453 22.744141 15.939453 L 9.5449219 15.939453 z M 9.5449219 19.460938 C 9.2689219 19.460938 9.0449219 19.684937 9.0449219 19.960938 C 9.0449219 20.236937 9.2689219 20.460938 9.5449219 20.460938 L 22.744141 20.460938 C 23.020141 20.460938 23.244141 20.236938 23.244141 19.960938 C 23.244141 19.684938 23.020141 19.460938 22.744141 19.460938 L 9.5449219 19.460938 z "></path></svg>